<svg xmlns="http://www.w3.org/2000/svg" viewBox="0 0 1540 1590"><g fill="none" fill-rule="evenodd"><circle fill="#FFF" cx="771.1257" cy="154.2251" r="154.2251"></circle><path d="M770 0v308.4503c-84.5545 0-153.0994-69.049-153.0994-154.2252S685.4456 0 770 0z" fill="#FFF8EB"></path><circle fill="#FFF8EB" cx="771.1257" cy="1385.7749" r="154.2251"></circle><path d="M924.2251 1385.7749v204.1325H615.775V1385.775c0-84.5545 69.049-153.0995 154.2251-153.0995 85.1762 0 154.2251 68.545 154.2251 153.0995z" fill="#FFF"></path><path d="M1231.5497 771.1257c0 85.1762 69.049 154.2252 154.2251 154.2252 85.1762 0 154.2252-69.049 154.2252-154.2252s-69.049-154.2251-154.2251-154.2251c-85.1762 0-154.2252 69.049-154.2252 154.2251z" fill="#FEDF93"></path><path d="M1386 617c85.0727.1216 154 69.1239 154 154.225 0 85.1011-68.9273 154.1034-154 154.225V617z" fill="#FFDB67"></path><path d="M0 771.1257C0 856.302 69.049 925.351 154.2251 925.351c85.1762 0 154.2252-69.049 154.2252-154.2252s-69.049-154.2251-154.2252-154.2251S0 685.9496 0 771.1257z" fill="#FFE9C1"></path><path d="M1096.6043 1096.6043c-60.2287 60.2286-60.2287 157.8786 0 218.1072 60.2286 60.2287 157.8786 60.2287 218.1072 0 60.2287-60.2286 60.2287-157.8786 0-218.1072-60.2286-60.2287-157.8786-60.2287-218.1072 0z" fill="#FFF8EB"></path><path d="M225.2885 225.2885c-60.2287 60.2286-60.2287 157.8786 0 218.1073 60.2286 60.2286 157.8786 60.2286 218.1073 0 60.2286-60.2287 60.2286-157.8787 0-218.1073-60.2287-60.2287-157.8787-60.2287-218.1073 0z" fill="#FEAB6F"></path><path d="M443.3958 1096.6043c-60.2287-60.2287-157.8787-60.2287-218.1073 0-60.2287 60.2286-60.2287 157.8786 0 218.1072 60.2286 60.2287 157.8786 60.2287 218.1073 0 60.2286-60.2286 60.2286-157.8786 0-218.1072z" fill="#533D52"></path><path d="M1314.7115 225.2885c-60.2286-60.2287-157.8786-60.2287-218.1072 0-60.2287 60.2286-60.2287 157.8786 0 218.1073 60.2286 60.2286 157.8786 60.2286 218.1072 0 60.2287-60.2287 60.2287-157.8787 0-218.1073z" fill="#FFE9C1"></path><path d="M1360.0088 1205.6579h-308.4503c0-84.5545 69.049-153.0994 154.2251-153.0994 85.1762 0 154.2252 68.545 154.2252 153.0994z" fill="#FFF"></path><ellipse fill="#FFF2E8" cx="153.0994" cy="771.1257" rx="153.0994" ry="154.2251"></ellipse><ellipse fill="#FEAB6F" transform="rotate(90 1206.7836 334.3421)" cx="1206.7836" cy="334.3421" rx="153.0994" ry="154.2251"></ellipse><path d="M1207 180.2427c85.0727.1216 154 69.1239 154 154.225 0 85.1011-68.9273 154.1034-154 154.225v-308.45z" fill="#FFBA88"></path><path d="M333.2164 1051.4327v308.4503c-84.5545 0-153.0994-69.049-153.0994-154.2251 0-85.1762 68.5449-154.2251 153.0994-154.2251z" fill="#63405C"></path><path d="M333.2164 180.117v308.4503c-84.5545 0-153.0994-69.049-153.0994-154.2252S248.6619 180.117 333.2164 180.117z" fill="#FFBA88"></path></g></svg>